{
  "accessors": [
    {
      "bufferView": 2,
      "componentType": 5126,
      "count": 33256,
      "max": [
        3.3176701068878174,
        16.291402816772461,
        2.920435905456543
      ],
      "min": [
        -1.2906850576400757,
        9.86053466796875,
        -1.3436369895935059
      ],
      "type": "VEC3"
    },
    {
      "bufferView": 2,
      "byteOffset": 399072,
      "componentType": 5126,
      "count": 33256,
      "max": [
        0.99989712238311768,
        0.99984711408615112,
        0.9999382495880127
      ],
      "min": [
        -0.99993413686752319,
        -0.99958324432373047,
        -0.99997562170028687
      ],
      "type": "VEC3"
    },
    {
      "bufferView": 1,
      "componentType": 5126,
      "count": 33256,
      "max": [
        0.9999690055847168,
        0.94488799571990967
      ],
      "min": [
        0,
        3.4000000596279278e-05
      ],
      "type": "VEC2"
    },
    {
      "bufferView": 0,
      "componentType": 5125,
      "count": 192468,
      "max": [
        33255
      ],
      "min": [
        0
      ],
      "type": "SCALAR"
    }
  ],
  "asset": {
    "extras": {
      "author": "Minneapolis Institute of Art (https://sketchfab.com/artsmia)",
      "license": "CC0-1.0 (http://creativecommons.org/publicdomain/zero/1.0/)",
      "source": "https://sketchfab.com/3d-models/18th-c-chinese-cloisonne-vase-396bb981dc4d47d080d5af127826d206",
      "title": "18th C Chinese cloisonne vase"
    },
    "generator": "Sketchfab-7.80.0",
    "version": "2.0"
  },
  "bufferViews": [
    {
      "buffer": 0,
      "byteLength": 769872,
      "byteOffset": 0,
      "name": "floatBufferViews",
      "target": 34963
    },
    {
      "buffer": 0,
      "byteLength": 266048,
      "byteOffset": 769872,
      "byteStride": 8,
      "name": "floatBufferViews",
      "target": 34962
    },
    {
      "buffer": 0,
      "byteLength": 798144,
      "byteOffset": 1035920,
      "byteStride": 12,
      "name": "floatBufferViews",
      "target": 34962
    }
  ],
  "buffers": [
    {
      "byteLength": 1834064,
      "uri": "scene.bin"
    }
  ],
  "images": [
    {
      "uri": "textures/180822_mia337_113283_300_64Kmesh_OBJ_baseColor.jpeg"
    }
  ],
  "materials": [
    {
      "doubleSided": true,
      "emissiveFactor": [
        0,
        0,
        0
      ],
      "name": "180822_mia337_113283_300_64Kmesh_OBJ",
      "pbrMetallicRoughness": {
        "baseColorFactor": [
          1,
          1,
          1,
          1
        ],
        "baseColorTexture": {
          "index": 0,
          "texCoord": 0
        },
        "metallicFactor": 0.15272541170000001,
        "roughnessFactor": 1
      }
    }
  ],
  "meshes": [
    {
      "primitives": [
        {
          "attributes": {
            "NORMAL": 1,
            "POSITION": 0,
            "TEXCOORD_0": 2
          },
          "indices": 3,
          "material": 0,
          "mode": 4
        }
      ]
    }
  ],
  "nodes": [
    {
      "children": [
        1
      ],
      "name": "RootNode (gltf orientation matrix)",
      "rotation": [
        -0.70710678118654746,
        -0,
        -0,
        0.70710678118654757
      ]
    },
    {
      "children": [
        2
      ],
      "matrix": [
        0.90962135791778564,
        0.025288030505180359,
        -0.41466790437698364,
        0,
        -0.41440185904502869,
        -0.015229417942464352,
        -0.90996658802032471,
        0,
        -0.029326412826776505,
        0.99956417083740234,
        -0.0033735970500856638,
        0,
        5.2340703010559082,
        12.449225425720215,
        13.309480667114258,
        1
      ],
      "name": "RootNode (model correction matrix)"
    },
    {
      "children": [
        3
      ],
      "name": "180822_mia337_113283_300_64Kmesh_OBJ.obj.cleaner.materialmerger.gles"
    },
    {
      "mesh": 0,
      "name": ""
    }
  ],
  "samplers": [
    {
      "magFilter": 9729,
      "minFilter": 9987,
      "wrapS": 10497,
      "wrapT": 10497
    }
  ],
  "scene": 0,
  "scenes": [
    {
      "name": "OSG_Scene",
      "nodes": [
        0
      ]
    }
  ],
  "textures": [
    {
      "sampler": 0,
      "source": 0
    }
  ]
}

